#!OML:ASF F:\VICON\USERDATA\INSTALL\SteveWalk\SteveWalk.ASF
:FULLY-SPECIFIED
:DEGREES
332
root 0.0367564 16.2684 27.5943 17.8148 4.47696 0.967206
lowerback -14.5255 -1.88325 -2.64393
upperback -5.35209 -2.11231 -0.0607753
thorax 2.57586 -1.02834 1.08033
lowerneck -4.66848 -0.285207 -1.17878
upperneck 11.2936 -0.518439 2.11808
head 4.58648 -0.199538 0.900095
rclavicle -3.01283e-016 3.77691e-015
rhumerus -51.9445 -28.8625 -62.626
rradius 14.0995
rwrist 14.017
rhand -16.6709 -31.3299
rfingers 7.12502
rthumb 9.5529 -61.0933
lclavicle -3.01283e-016 3.77691e-015
lhumerus -21.787 0.514631 82.5131
lradius 31.46
lwrist 1.3887
lhand -20.3292 -15.6575
lfingers 7.12502
lthumb 6.02196 14.2369
rfemur -47.8702 -4.92201 22.2807
rtibia 50.9545
rfoot -14.3093 -3.96746
rtoes -4.3603
lfemur -22.9025 6.80621 -25.4437
ltibia 33.1432
lfoot -24.8122 -10.6942
ltoes -1.18581
333
root 0.0280348 16.2678 27.8067 17.8839 4.65764 1.5957
lowerback -14.6414 -2.01809 -3.45818
upperback -5.27953 -2.16748 -0.148926
thorax 2.73917 -1.05287 1.43245
lowerneck -4.55908 -0.404918 -1.23367
upperneck 11.0833 -0.678136 2.1692
head 4.49159 -0.279073 0.916882
rclavicle 2.65564e-016 9.14409e-015
rhumerus -55.1001 -32.126 -57.37
rradius 13.3033
rwrist 18.6262
rhand -16.659 -32.1258
rfingers 7.12502
rthumb 9.56437 -61.8887
lclavicle 2.65564e-016 9.14409e-015
lhumerus -20.387 -0.692413 82.7746
lradius 32.5737
lwrist 2.54777
lhand -20.7067 -16.2909
lfingers 7.12502
lthumb 5.65752 13.6135
rfemur -48.2707 -4.88075 21.6224
rtibia 48.0575
rfoot -14.2452 -4.59754
rtoes -3.59512
lfemur -21.5441 7.14327 -25.9362
ltibia 32.0555
lfoot -24.8712 -11.4109
ltoes -0.86029
334
root 0.0175897 16.2548 28.009 17.9822 4.99145 1.97472
lowerback -14.6593 -2.16886 -3.97941
upperback -5.24393 -2.28965 -0.185452
thorax 2.80839 -1.11162 1.66525
lowerneck -4.42064 -0.511704 -1.1957
upperneck 10.8714 -0.825778 2.19491
head 4.38959 -0.350342 0.909266
rclavicle 1.00417e-014 1.37161e-014
rhumerus -58.4977 -34.7889 -52.1693
rradius 12.7343
rwrist 22.7259
rhand -16.9046 -32.5829
rfingers 7.12502
rthumb 9.32741 -62.3566
lclavicle 1.00417e-014 1.37161e-014
lhumerus -19.0253 -1.69136 82.8612
lradius 33.6866
lwrist 3.4372
lhand -20.8306 -16.7299
lfingers 7.12502
lthumb 5.53792 13.1777
rfemur -48.578 -4.92546 21.3504
rtibia 45.0722
rfoot -14.2659 -5.2918
rtoes -8.04889
lfemur -20.2721 7.23777 -26.0908
ltibia 30.9396
lfoot -24.9955 -11.6067
ltoes -2.18876
335
root 0.00141134 16.2454 28.2123 18.1325 5.17683 2.24179
lowerback -14.7497 -2.26707 -4.46904
upperback -5.20404 -2.34356 -0.193586
thorax 2.91814 -1.13772 1.91917
lowerneck -4.4357 -0.608031 -1.21211
upperneck 10.7944 -0.962337 2.283
head 4.36866 -0.414243 0.934458
rclavicle 7.7526e-015 6.16232e-015
rhumerus -62.8113 -37.6193 -45.6431
rradius 12.1403
rwrist 27.7496
rhand -17.4318 -32.5218
rfingers 7.12502
rthumb 8.8187 -62.3176
lclavicle 7.7526e-015 6.16232e-015
lhumerus -17.6916 -2.73136 82.8844
lradius 34.8302
lwrist 4.36045
lhand -20.8014 -17.1194
lfingers 7.12502
lthumb 5.56613 12.7875
rfemur -49.0106 -4.61927 21.0669
rtibia 42.1364
rfoot -13.7928 -5.80913
rtoes -8.26287
lfemur -19.0739 7.30693 -26.1243
ltibia 29.8739
lfoot -25.0877 -11.7042
ltoes -3.05857
